<svg width="16" height="17" viewBox="0 0 16 17" fill="none" xmlns="http://www.w3.org/2000/svg">
<path d="M9.33325 10.9448C8.97051 11.0927 8.58232 11.1681 8.19059 11.1668C6.61259 11.1668 5.33325 9.9735 5.33325 8.50016C5.33325 7.02683 6.61259 5.8335 8.19059 5.8335C8.59725 5.8335 8.98325 5.91283 9.33325 6.0555" stroke="white" stroke-opacity="0.7" stroke-linecap="round"/>
<path d="M4.66659 2.72551C5.67955 2.13932 6.82957 1.83158 7.99992 1.83351C11.6819 1.83351 14.6666 4.81817 14.6666 8.50017C14.6666 12.1822 11.6819 15.1668 7.99992 15.1668C4.31792 15.1668 1.33325 12.1822 1.33325 8.50017C1.33325 7.28617 1.65792 6.14684 2.22525 5.16684" stroke="white" stroke-opacity="0.7" stroke-linecap="round"/>
</svg>
