<svg width="104" height="104" viewBox="0 0 104 104" fill="none" xmlns="http://www.w3.org/2000/svg">
<path d="M88.09 69.0611C90.8198 60.5701 90.5731 50.1012 87.542 41.7289C85.4509 35.9662 80.6658 28.4595 73.4133 30.067C67.0616 31.484 64.4182 39.1141 64.5181 44.8917C64.6403 51.3812 66.507 58.2522 69.8715 63.8286C71.5283 66.5772 73.7663 69.2748 76.7413 70.6859C79.8645 72.1733 83.1584 71.874 86.2384 70.4318C87.9141 69.6497 86.3969 67.2205 84.7369 67.9859C73.6927 73.131 68.2979 54.9403 67.5255 47.3381C67.0324 42.4474 67.7398 36.0773 72.5951 33.4126C78.1187 30.3704 82.8385 37.3448 84.4635 41.6651C87.5728 49.9539 88.0162 59.9793 85.3021 68.4537C84.741 70.188 87.53 70.8278 88.09 69.0611Z" fill="#E1D4DB"/>
<path d="M85.9021 68.4845C82.4022 62.718 80.7847 56.0496 78.9801 49.6138C78.4872 47.8321 75.7281 48.6649 76.2368 50.4299C78.1131 57.0901 79.8514 63.9976 83.4712 69.9707C84.411 71.5439 86.8743 70.0566 85.9021 68.4845Z" fill="#E1D4DB"/>
<path d="M66.466 76.082C62.0598 72.9191 57.5606 69.8887 52.8753 67.1233C47.5298 63.958 41.5595 60.4887 35.328 59.5376C33.1315 59.2028 30.6863 59.1998 28.8014 60.5391C26.7263 62.014 26.1603 64.6229 26.2196 67.0338C26.3057 70.8201 27.4019 74.801 29.7304 77.8035C32.3967 81.2485 36.2099 83.5721 40.2546 85.0139C48.9168 88.0897 60.996 87.5589 66.3798 79.0156C67.3674 77.462 64.816 76.1346 63.844 77.6715C59.6486 84.3471 50.0429 84.7505 43.2017 82.9444C39.43 81.9473 35.7457 80.1216 33.0339 77.2933C30.5901 74.748 29.4495 71.4162 29.1303 67.945C29.0302 66.8146 28.9927 65.6176 29.3309 64.5219C29.5361 63.8352 29.9541 63.2228 30.3499 62.9349C31.6 62.0044 33.4815 62.1064 35.1917 62.4243C40.7448 63.4294 45.9881 66.436 50.8038 69.2296C53.6409 70.888 56.4162 72.6456 59.1446 74.4532C60.2032 75.1643 61.2618 75.8754 62.3213 76.6189C62.7687 76.9447 63.2151 77.2381 63.6625 77.5639C64.0599 77.8427 64.3581 78.0599 64.5073 78.1685C65.9976 79.2221 67.973 77.1512 66.466 76.082Z" fill="#E1D4DB"/>
<path d="M64.2565 77.3995C58.0866 76.3493 52.2351 74.0907 46.2851 72.3048C44.5199 71.7781 43.8785 74.5676 45.6438 75.0942C51.5938 76.8801 57.4453 79.1387 63.6151 80.1889C65.4224 80.5038 66.0794 77.6976 64.2565 77.3995Z" fill="#E1D4DB"/>
<path d="M55.0664 47.1037C53.8952 39.6923 52.3929 31.5304 47.5417 25.5318C44.5771 21.8695 40.1704 18.1723 35.4144 17.2875C33.3787 16.9152 31.2495 17.1774 29.6754 18.6201C27.8653 20.2809 27.3953 22.8544 27.2741 25.19C26.9792 31.2879 30.8436 36.7999 35.2545 40.6265C40.0813 44.8123 46.3868 48.1252 52.8619 48.5827C54.6955 48.7024 54.5896 45.8396 52.7728 45.7356C48.0508 45.4165 43.3631 43.0885 39.5544 40.3923C35.4307 37.4633 31.5785 33.3759 30.3998 28.3128C29.6525 25.1304 29.9919 19.4197 34.4966 20.0372C38.4315 20.5595 42.125 23.7127 44.6916 26.5618C49.6081 32.0564 51.0917 40.1379 52.2027 47.1788C52.4859 48.9833 55.3496 48.9082 55.0664 47.1037Z" fill="#E1D4DB"/>
<path d="M53.3461 44.9239C49.4423 41.2592 45.9637 37.2085 42.0599 33.5438C40.7253 32.291 38.7498 34.3618 40.1011 35.6304C44.0049 39.2951 47.4836 43.3458 51.3874 47.0104C52.7387 48.279 54.6974 46.1925 53.3461 44.9239Z" fill="#E1D4DB"/>
</svg>
